<svg xmlns="http://www.w3.org/2000/svg" viewBox="0 0 829.28 182.08"><defs><style>.cls-1{fill:#fff;}</style></defs><title>Asset 7 VektorLogo</title><g id="Layer_2" data-name="Layer 2"><g id="Lager_1" data-name="Lager 1"><path class="cls-1" d="M145,120.44V62.1H126.79V47.61h50.9V62.1H159.54v58.34Z"/><path class="cls-1" d="M71.41,120.44H56.82V46H60.7L97.52,88.82V47.61h14.69V122h-3.88L71.41,80.76Z"/><path class="cls-1" d="M192.28,120.44V47.61h14.58v72.83Z"/><path class="cls-1" d="M78.7,14.59V0H0V81.71c0,55.72,28.21,73.54,74.23,98l4.47,2.38V165.55l-.55-.3C36.38,142.94,14.59,129.1,14.59,81.71V14.59Z"/><path class="cls-1" d="M242.26,107.21v12.65h-6v-34h13.36a12.43,12.43,0,0,1,4.63.76,8.21,8.21,0,0,1,3.13,2.13,8.48,8.48,0,0,1,1.79,3.17,13.16,13.16,0,0,1,.57,4v1.15c0,3.27-.94,5.79-2.82,7.54s-4.62,2.62-8.25,2.62Zm0-4.68h5.87a6.16,6.16,0,0,0,4.27-1.29,5.26,5.26,0,0,0,1.4-4v-1.1A5.84,5.84,0,0,0,252.49,92a5.48,5.48,0,0,0-4.17-1.4h-6.06Z"/><path class="cls-1" d="M290.93,96.81a10.31,10.31,0,0,1-1.64,6,8.63,8.63,0,0,1-4.8,3.34l7.64,13.75h-6.45l-7-13.08H273v13.08h-5.87v-34h13.65a12.22,12.22,0,0,1,4.65.79,8.45,8.45,0,0,1,3.15,2.12,8.32,8.32,0,0,1,1.79,3.13,12.56,12.56,0,0,1,.57,3.84ZM273,101.91h6.35a6.25,6.25,0,0,0,4.2-1.24,5,5,0,0,0,1.43-4V96q0-5.3-5.4-5.29H273Z"/><path class="cls-1" d="M311.07,85.16a17.12,17.12,0,0,1,6.8,1.15,10,10,0,0,1,4.18,3.22,12.65,12.65,0,0,1,2.12,4.94,31,31,0,0,1,.6,6.35v4.1a30.59,30.59,0,0,1-.62,6.37,12.63,12.63,0,0,1-2.15,4.94,10.07,10.07,0,0,1-4.2,3.2,20.49,20.49,0,0,1-13.48,0,10,10,0,0,1-4.18-3.22,12.56,12.56,0,0,1-2.12-4.94,31.07,31.07,0,0,1-.6-6.35v-4.1a29.31,29.31,0,0,1,.65-6.38,13,13,0,0,1,2.19-5,10.08,10.08,0,0,1,4.18-3.2A17.11,17.11,0,0,1,311.07,85.16Zm.05,30.45a10.92,10.92,0,0,0,3.22-.43,4.76,4.76,0,0,0,2.36-1.62,8.41,8.41,0,0,0,1.46-3.27,23.58,23.58,0,0,0,.5-5.32v-4.2a26.1,26.1,0,0,0-.45-5.37,8,8,0,0,0-1.39-3.25,4.68,4.68,0,0,0-2.36-1.59,11.57,11.57,0,0,0-3.34-.43,11.22,11.22,0,0,0-3.25.43,4.78,4.78,0,0,0-2.38,1.59A8.18,8.18,0,0,0,304,95.4a23.75,23.75,0,0,0-.5,5.37V105a24.21,24.21,0,0,0,.48,5.34,8.09,8.09,0,0,0,1.43,3.25,4.8,4.8,0,0,0,2.36,1.62A11.34,11.34,0,0,0,311.12,115.61Z"/><path class="cls-1" d="M348.34,90.36a19.26,19.26,0,0,0-4.63.48,6.29,6.29,0,0,0-3.1,1.72A7.37,7.37,0,0,0,338.87,96a22.23,22.23,0,0,0-.55,5.44v3.2a24.59,24.59,0,0,0,.48,5.34,7.28,7.28,0,0,0,1.55,3.32,5.43,5.43,0,0,0,2.79,1.67,17,17,0,0,0,4.25.45c.63,0,1.26,0,1.88-.05a12.53,12.53,0,0,0,1.89-.24v-9h-4.87l.57-4.68h9.93v17.46a22.65,22.65,0,0,1-4.46,1.05,37.78,37.78,0,0,1-5.8.43,19.6,19.6,0,0,1-7.23-1.12,10,10,0,0,1-4.37-3.17,11.84,11.84,0,0,1-2.15-4.89,32.06,32.06,0,0,1-.57-6.28v-3.63a26.82,26.82,0,0,1,.72-6.41,12,12,0,0,1,2.45-5,11.52,11.52,0,0,1,4.75-3.25,21.16,21.16,0,0,1,7.59-1.17,26.25,26.25,0,0,1,4.61.41,22.31,22.31,0,0,1,3.69.93l-1,4.58a29.68,29.68,0,0,0-3-.67A21.44,21.44,0,0,0,348.34,90.36Z"/><path class="cls-1" d="M389,96.81a10.31,10.31,0,0,1-1.64,6,8.63,8.63,0,0,1-4.8,3.34l7.64,13.75H383.7l-7-13.08H371v13.08h-5.87v-34h13.65a12.22,12.22,0,0,1,4.65.79,8.45,8.45,0,0,1,3.15,2.12,8.32,8.32,0,0,1,1.79,3.13,12.56,12.56,0,0,1,.57,3.84ZM371,101.91h6.35a6.25,6.25,0,0,0,4.2-1.24,5,5,0,0,0,1.43-4V96q0-5.3-5.4-5.29H371Z"/><path class="cls-1" d="M415.39,110.89h-12l-2.81,9h-6l11.6-34h6.39l11.84,34h-6.2Zm-10.55-4.78h9L409.38,91.7Z"/><path class="cls-1" d="M436.67,85.88l9.4,19.8,9.17-19.8h5.91v34h-5.63v-24l-7.25,15.89h-4.49l-7.39-15.65v23.77H430.8v-34Z"/><path class="cls-1" d="M476,85.88l9.4,19.8,9.16-19.8h5.92v34h-5.63v-24l-7.26,15.89h-4.48l-7.4-15.65v23.77h-5.58v-34Z"/><path class="cls-1" d="M531.45,85.88l-.67,4.77H515.41v9.45h14.51l-.67,4.77H515.41v10.21h16l-.67,4.78H509.45v-34Z"/><path class="cls-1" d="M562.61,96.81a10.24,10.24,0,0,1-1.65,6,8.57,8.57,0,0,1-4.79,3.34l7.63,13.75h-6.44l-7-13.08h-5.72v13.08H538.8v-34h13.65a12.22,12.22,0,0,1,4.65.79,8.45,8.45,0,0,1,3.15,2.12A8.32,8.32,0,0,1,562,91.92a12.56,12.56,0,0,1,.57,3.84Zm-17.94,5.1H551a6.21,6.21,0,0,0,4.2-1.24,4.94,4.94,0,0,0,1.43-4V96c0-3.53-1.79-5.29-5.39-5.29h-6.58Z"/><path class="cls-1" d="M576.31,119.86h-6v-34h6Z"/><path class="cls-1" d="M590.53,85.88l14.7,24.24V85.88h5.48v34h-5.25L590.77,95.61v24.25h-5.49v-34Z"/><path class="cls-1" d="M635.05,90.36a19.31,19.31,0,0,0-4.63.48,6.34,6.34,0,0,0-3.1,1.72A7.46,7.46,0,0,0,625.58,96a22.23,22.23,0,0,0-.55,5.44v3.2a24.59,24.59,0,0,0,.48,5.34,7.39,7.39,0,0,0,1.55,3.32,5.47,5.47,0,0,0,2.79,1.67,17.07,17.07,0,0,0,4.25.45c.63,0,1.26,0,1.88-.05a12.53,12.53,0,0,0,1.89-.24v-9H633l.57-4.68h9.93v17.46A22.65,22.65,0,0,1,639,119.9a37.69,37.69,0,0,1-5.8.43,19.6,19.6,0,0,1-7.23-1.12,10,10,0,0,1-4.37-3.17,11.84,11.84,0,0,1-2.15-4.89,32.06,32.06,0,0,1-.57-6.28v-3.63a26.82,26.82,0,0,1,.72-6.41,11.9,11.9,0,0,1,2.46-5,11.42,11.42,0,0,1,4.74-3.25,21.16,21.16,0,0,1,7.59-1.17,26.17,26.17,0,0,1,4.61.41,22.73,22.73,0,0,1,3.7.93l-1,4.58a30.56,30.56,0,0,0-3-.67A21.35,21.35,0,0,0,635.05,90.36Z"/><path class="cls-1" d="M660.77,120.33a34.88,34.88,0,0,1-5.56-.43,26.93,26.93,0,0,1-4.6-1.09l1-4.68c1.34.35,2.75.65,4.25.91a28.22,28.22,0,0,0,4.67.38c2.65,0,4.52-.42,5.64-1.27a4.79,4.79,0,0,0,1.67-4.08,7.54,7.54,0,0,0-.19-1.69,3.44,3.44,0,0,0-.72-1.41,4.26,4.26,0,0,0-1.46-1,8.66,8.66,0,0,0-2.41-.62l-3.81-.52a9.78,9.78,0,0,1-6.18-3,9,9,0,0,1-2.13-6.21v-.47q0-5.06,3.2-7.4t9.69-2.34a27.82,27.82,0,0,1,9.06,1.43l-.95,4.63a26.23,26.23,0,0,0-3.63-.86,27.33,27.33,0,0,0-4.44-.33c-2.54,0-4.39.37-5.53,1.1a4.15,4.15,0,0,0-1.72,3.81,4,4,0,0,0,1.1,3.13,7.46,7.46,0,0,0,3.67,1.41l3.73.62a19.21,19.21,0,0,1,3.5.93,8.4,8.4,0,0,1,2.75,1.65,6.89,6.89,0,0,1,1.76,2.67,11,11,0,0,1,.62,4V110Q673.75,120.34,660.77,120.33Z"/><path class="cls-1" d="M687.07,104.63v15.23h-5.73v-34h5.73v14.17l12.6-14.17h6.82L691.94,102l15.36,17.9H700Z"/><path class="cls-1" d="M718.9,85.88v29H734l-.67,5H712.93v-34Z"/><path class="cls-1" d="M752.25,120.57a19.13,19.13,0,0,1-6.37-.9,8.69,8.69,0,0,1-4-2.75,10.85,10.85,0,0,1-2-4.56,31.13,31.13,0,0,1-.57-6.34V85.88h6v19.8a26.53,26.53,0,0,0,.36,4.78,7.3,7.3,0,0,0,1.19,3.05,4.51,4.51,0,0,0,2.19,1.62,12.39,12.39,0,0,0,6.83,0,4.41,4.41,0,0,0,2.17-1.62,7.29,7.29,0,0,0,1.12-3.05,29.89,29.89,0,0,0,.31-4.73V85.88h6v20.19a29.13,29.13,0,0,1-.6,6.27,10.77,10.77,0,0,1-2.08,4.53,8.91,8.91,0,0,1-4,2.77A19.14,19.14,0,0,1,752.25,120.57Z"/><path class="cls-1" d="M774,119.86v-34h13a14.62,14.62,0,0,1,4.61.64,8.42,8.42,0,0,1,3.15,1.79,7.06,7.06,0,0,1,1.79,2.7,9.64,9.64,0,0,1,.57,3.36v.86a7.66,7.66,0,0,1-1.12,4.2,6.82,6.82,0,0,1-3.08,2.63,6.62,6.62,0,0,1,3.72,3,9.24,9.24,0,0,1,1.29,4.86v.86a8.26,8.26,0,0,1-2.84,6.78q-2.83,2.34-8.52,2.34Zm5.82-20h6.58A5.37,5.37,0,0,0,790,98.84a4,4,0,0,0,1.26-3.18V94.9q0-4.49-5.2-4.49h-6.2Zm0,15.37h6.73q5.38,0,5.39-4.68v-1q0-5.1-5.58-5.1h-6.54Z"/><path class="cls-1" d="M805.32,119.86v-34h13a14.55,14.55,0,0,1,4.6.64,8.42,8.42,0,0,1,3.15,1.79,7.06,7.06,0,0,1,1.79,2.7,9.64,9.64,0,0,1,.58,3.36v.86a7.67,7.67,0,0,1-1.13,4.2,6.8,6.8,0,0,1-3.07,2.63,6.62,6.62,0,0,1,3.72,3,9.24,9.24,0,0,1,1.29,4.86v.86a8.29,8.29,0,0,1-2.84,6.78q-2.85,2.34-8.52,2.34Zm5.82-20h6.59a5.34,5.34,0,0,0,3.55-1.07,3.93,3.93,0,0,0,1.27-3.18V94.9c0-3-1.74-4.49-5.2-4.49h-6.21Zm0,15.37h6.73c3.6,0,5.39-1.56,5.39-4.68v-1q0-5.1-5.58-5.1h-6.54Z"/><path class="cls-1" d="M241.08,76.5a15.21,15.21,0,0,1-2.72-.22,15,15,0,0,1-2-.45l.47-2a13.08,13.08,0,0,0,1.75.32,16.51,16.51,0,0,0,2.05.12,9,9,0,0,0,3.2-.49,4,4,0,0,0,1.92-1.57,7.06,7.06,0,0,0,.94-2.76,27.61,27.61,0,0,0,.25-4V48.2h2.47V66.11a21.79,21.79,0,0,1-.39,4.32,8.62,8.62,0,0,1-1.33,3.27,6.17,6.17,0,0,1-2.55,2.08A10,10,0,0,1,241.08,76.5Z"/><path class="cls-1" d="M267.19,47.62a13.37,13.37,0,0,1,5.11.84A7.26,7.26,0,0,1,275.5,51a10.24,10.24,0,0,1,1.64,4,27.66,27.66,0,0,1,.47,5.43v3.53a26.89,26.89,0,0,1-.47,5.31,10.31,10.31,0,0,1-1.66,4,7.64,7.64,0,0,1-3.24,2.55,15.79,15.79,0,0,1-10.31,0,7.26,7.26,0,0,1-3.17-2.47,9.87,9.87,0,0,1-1.63-4,29.63,29.63,0,0,1-.45-5.47V60.39a27.17,27.17,0,0,1,.47-5.25,10.81,10.81,0,0,1,1.65-4A7.5,7.5,0,0,1,262,48.52,12.9,12.9,0,0,1,267.19,47.62Zm-.08,26.92a12.19,12.19,0,0,0,3.58-.47,4.9,4.9,0,0,0,2.47-1.68,8.13,8.13,0,0,0,1.43-3.3,23.9,23.9,0,0,0,.47-5.25V60.47a24.72,24.72,0,0,0-.47-5.37,7.54,7.54,0,0,0-1.45-3.25,5.06,5.06,0,0,0-2.48-1.63,12.51,12.51,0,0,0-3.55-.45,12.12,12.12,0,0,0-3.49.45,4.88,4.88,0,0,0-2.45,1.65,8.27,8.27,0,0,0-1.45,3.27,23.69,23.69,0,0,0-.49,5.33v3.37a25.37,25.37,0,0,0,.45,5.25,8,8,0,0,0,1.41,3.3,4.93,4.93,0,0,0,2.45,1.68A12,12,0,0,0,267.11,74.54Z"/><path class="cls-1" d="M304.85,48.2V76.11h-2.51V62.67H287.76V76.11h-2.51V48.2h2.51V60.31h14.58V48.2Z"/><path class="cls-1" d="M328,67.6H316.06l-2.94,8.51h-2.51l10-27.91h3l10.11,27.91H331Zm-11.17-2.27h10.39L322,50.59Z"/><path class="cls-1" d="M342,48.2l14.54,24v-24h2.35V76.11h-2.54l-14.54-24v24h-2.35V48.2Z"/><path class="cls-1" d="M369.83,48.2l14.54,24v-24h2.35V76.11h-2.55l-14.54-24v24h-2.35V48.2Z"/><path class="cls-1" d="M411.8,48.2l-.39,2.16H397.62V60.51h12.89l-.39,2.23h-12.5V74H411.8l-.39,2.16h-16.3V48.2Z"/><path class="cls-1" d="M418.7,76.11V48.2h9.8a10.52,10.52,0,0,1,3.62.55,6.58,6.58,0,0,1,2.37,1.45,5.12,5.12,0,0,1,1.3,2.1,8.12,8.12,0,0,1,.39,2.53v.9a6.1,6.1,0,0,1-1,3.64,5.71,5.71,0,0,1-2.8,2.08,5.41,5.41,0,0,1,2.08.92,5.86,5.86,0,0,1,1.43,1.55,6.72,6.72,0,0,1,.84,2,9.24,9.24,0,0,1,.27,2.25v.9a8,8,0,0,1-.49,2.87A5.66,5.66,0,0,1,435,74.15a7.1,7.1,0,0,1-2.63,1.45,12.44,12.44,0,0,1-3.78.51Zm2.47-15.64h7.41a5.65,5.65,0,0,0,3.84-1.17,4.18,4.18,0,0,0,1.33-3.3v-.86c0-3.26-1.87-4.9-5.6-4.9h-7Zm0,13.56h7.52a6.7,6.7,0,0,0,4.3-1.17A4.73,4.73,0,0,0,434.42,69V68c0-3.64-1.95-5.45-5.84-5.45h-7.41Z"/><path class="cls-1" d="M460.4,48.2,460,50.36h-13.8V60.51h12.9l-.4,2.23h-12.5V74H460.4L460,76.11H443.7V48.2Z"/><path class="cls-1" d="M477.17,64.31h-7.44v11.8H467.3V48.2h10.23a9.46,9.46,0,0,1,3.5.59,6.67,6.67,0,0,1,2.43,1.61,6.45,6.45,0,0,1,1.43,2.45,9.6,9.6,0,0,1,.48,3.08v.62a9,9,0,0,1-.46,3,6.8,6.8,0,0,1-1.23,2.18,6.42,6.42,0,0,1-1.8,1.45,8.21,8.21,0,0,1-2.16.78l6.55,12.15h-2.82Zm-7.44-2.15h6.86a7.07,7.07,0,0,0,4.7-1.32,5.31,5.31,0,0,0,1.53-4.25v-.43a6.08,6.08,0,0,0-1.39-4.37,6.08,6.08,0,0,0-4.49-1.43h-7.21Z"/><path class="cls-1" d="M502.3,63.8l.43-2.19h7.48V75.36a14,14,0,0,1-1.51.46c-.58.14-1.2.26-1.84.37s-1.27.18-1.9.23-1.2.08-1.72.08a16.61,16.61,0,0,1-6.16-.94,7.94,7.94,0,0,1-3.54-2.63,9.19,9.19,0,0,1-1.63-4.05,32.38,32.38,0,0,1-.39-5.23V60.82a25.1,25.1,0,0,1,.55-5.56,9.64,9.64,0,0,1,1.9-4.08,8.52,8.52,0,0,1,3.66-2.51,17.15,17.15,0,0,1,5.88-.86,18.35,18.35,0,0,1,3.16.28,15.34,15.34,0,0,1,2.76.7l-.51,2a24.4,24.4,0,0,0-2.45-.55,18.3,18.3,0,0,0-3-.23,16.4,16.4,0,0,0-4.33.49,6,6,0,0,0-2.92,1.74,7.56,7.56,0,0,0-1.65,3.37,24.05,24.05,0,0,0-.51,5.37v2.63a23.62,23.62,0,0,0,.49,5.21,7.4,7.4,0,0,0,1.59,3.29A5.92,5.92,0,0,0,499,73.82a16.83,16.83,0,0,0,4.35.49,23.82,23.82,0,0,0,2.43-.12,17.43,17.43,0,0,0,2.16-.35v-10Z"/><path class="cls-1" d="M527.85,60.9a11.4,11.4,0,0,1,3.25,1,6,6,0,0,1,2.06,1.61,5.83,5.83,0,0,1,1.08,2.17,10.33,10.33,0,0,1,.31,2.59v.47a8,8,0,0,1-.61,3.16,6.59,6.59,0,0,1-1.84,2.47,8.66,8.66,0,0,1-3.12,1.6,15.3,15.3,0,0,1-4.42.57,25.6,25.6,0,0,1-4.2-.35,21.43,21.43,0,0,1-3.49-.86l.47-2.08a32.74,32.74,0,0,0,3.34.76,21.37,21.37,0,0,0,4,.34c2.7,0,4.61-.48,5.75-1.43a5.63,5.63,0,0,0,1.7-4.53,7.74,7.74,0,0,0-.21-1.84,3.88,3.88,0,0,0-2.32-2.69,9.61,9.61,0,0,0-2.56-.68l-3.53-.51a7.93,7.93,0,0,1-5-2.26,7.17,7.17,0,0,1-1.51-4.84v-.19a7.37,7.37,0,0,1,.69-3.26,6.32,6.32,0,0,1,2-2.35,9.61,9.61,0,0,1,3.13-1.43,16.33,16.33,0,0,1,4.12-.49,19.91,19.91,0,0,1,3.78.34,17.92,17.92,0,0,1,3.12.84l-.55,2a19.8,19.8,0,0,0-3.06-.71,22.5,22.5,0,0,0-3.49-.27q-3.92,0-5.62,1.39a5.07,5.07,0,0,0-1.71,4.17,4.51,4.51,0,0,0,1.08,3.27,6.6,6.6,0,0,0,3.86,1.51Z"/></g></g></svg>